<?xml version="1.0" standalone="no"?><!DOCTYPE svg PUBLIC "-//W3C//DTD SVG 1.1//EN" "http://www.w3.org/Graphics/SVG/1.1/DTD/svg11.dtd"><svg t="1564217699005" class="icon" viewBox="0 0 1024 1024" version="1.1" xmlns="http://www.w3.org/2000/svg" p-id="2892" xmlns:xlink="http://www.w3.org/1999/xlink" width="200" height="200"><defs><style type="text/css"></style></defs><path d="M583.202 206.965l-48.558 20.825a51.58 51.58 0 0 1-40.617 0l-48.558-20.825c-55.976-24.005-116.399-36.399-177.483-36.399h-85.199c-56.859 0-102.954 45.261-102.954 101.089v448.477c0 55.831 46.095 101.091 102.954 101.091h85.199c61.084 0 121.507 12.39 177.483 36.397l48.558 20.825a51.58 51.58 0 0 0 40.617 0l48.558-20.825c55.976-24.007 116.399-36.397 177.479-36.397h85.202c56.859 0 102.95-45.259 102.95-101.091V271.655c0-55.828-46.092-101.089-102.95-101.089h-85.202c-61.08 0-121.504 12.394-177.479 36.399z" fill="#FFA820" p-id="2893"></path><path d="M948.833 271.655c0-55.828-46.092-101.089-102.95-101.089h-6.279c55.632 62.658 94.405 140.616 109.23 226.765V271.655zM79.833 271.655v6.701c17.398-36.537 39.47-70.417 65.446-100.868-38.311 14.724-65.446 51.334-65.446 94.167zM79.833 673.455v46.677c0 55.831 46.095 101.091 102.954 101.091h8.646c-46.499-40.97-84.656-91.183-111.6-147.768zM948.833 720.132V554.48c-18.169 105.581-72.315 198.853-149.369 266.743h46.418c56.86 0 102.951-45.259 102.951-101.091z" fill="#FEAC33" p-id="2894"></path><path d="M198.116 170.566h-15.329c-13.235 0-25.885 2.455-37.508 6.922-25.976 30.451-48.048 64.331-65.446 100.868v147.526c7.054-99.812 50.997-189.436 118.283-255.316zM948.833 554.48V397.332c-14.825-86.149-53.598-164.107-109.23-226.765H760.68c-2.34 0-4.678 0.025-7.016 0.061 73.574 72.067 119.229 172.526 119.229 283.651 0 219.276-177.758 397.034-397.034 397.034-19.282 0-38.241-1.38-56.789-4.037a447.82 447.82 0 0 1 26.397 10.344l48.558 20.825a51.58 51.58 0 0 0 40.617 0L583.2 857.62c55.976-24.007 116.399-36.397 177.479-36.397h38.784c77.055-67.89 131.201-161.163 149.37-266.743zM79.833 482.675v190.781c26.944 56.585 65.1 106.798 111.6 147.768h76.553a451.46 451.46 0 0 1 69.89 5.449C195.081 773.742 91.025 641.034 79.833 482.675z" fill="#FEB133" p-id="2895"></path><path d="M872.895 454.279c0-111.125-45.655-211.585-119.229-283.651a451.186 451.186 0 0 0-80.063 8.427c71.41 61.255 116.661 152.137 116.661 253.597 0 184.459-149.533 333.992-333.992 333.992S122.279 617.11 122.279 432.651c0-106.256 49.626-200.914 126.956-262.085h-51.119C130.83 236.446 86.887 326.07 79.833 425.882v56.793c11.192 158.359 115.248 291.067 258.042 343.997a449.993 449.993 0 0 1 81.196 20.604 400.422 400.422 0 0 0 56.789 4.037c219.276 0 397.035-177.758 397.035-397.034z" fill="#FEB633" p-id="2896"></path><path d="M122.279 432.651c0 184.459 149.533 333.992 333.992 333.992S790.263 617.11 790.263 432.651c0-101.46-45.251-192.343-116.661-253.597a449.803 449.803 0 0 0-68.953 19.362c62.729 49.625 102.983 126.413 102.983 212.608 0 149.641-121.308 270.95-270.95 270.95s-270.95-121.308-270.95-270.95c0-103.188 57.687-192.895 142.566-238.652a451.635 451.635 0 0 0-40.313-1.805h-18.75c-77.33 61.17-126.956 155.829-126.956 262.084z" fill="#FFBC34" p-id="2897"></path><path d="M165.733 411.024c0 149.641 121.308 270.95 270.95 270.95s270.95-121.308 270.95-270.95c0-86.195-40.255-162.983-102.983-212.608a447.192 447.192 0 0 0-21.447 8.549l-39.99 17.15c49.711 37.99 81.789 97.885 81.789 165.282 0 114.824-93.083 207.907-207.907 207.907s-207.907-93.083-207.907-207.907c0-102.242 73.802-187.246 171.038-204.647a450.814 450.814 0 0 0-71.926-12.378c-84.88 45.757-142.567 135.464-142.567 238.652z" fill="#FFC134" p-id="2898"></path><path d="M209.186 389.397c0 114.824 93.083 207.907 207.907 207.907S625 504.221 625 389.397c0-67.397-32.078-127.292-81.789-165.282l-8.568 3.675a51.58 51.58 0 0 1-40.617 0l-48.558-20.825a448.993 448.993 0 0 0-65.244-22.216c-97.236 17.402-171.038 102.406-171.038 204.648z m188.319-166.492c80.007 0 144.865 64.858 144.865 144.865s-64.858 144.865-144.865 144.865S252.64 447.776 252.64 367.77s64.858-144.865 144.865-144.865z" fill="#FFC634" p-id="2899"></path><path d="M397.505 367.77m-144.865 0a144.865 144.865 0 1 0 289.73 0 144.865 144.865 0 1 0-289.73 0Z" fill="#FFCB34" p-id="2900"></path><path d="M845.883 188.566c46.842 0 84.95 37.274 84.95 83.089v448.477c0 45.816-38.109 83.091-84.95 83.091h-85.202c-63.908 0-126.007 12.736-184.574 37.854l-48.56 20.826c-4.188 1.797-8.633 2.708-13.211 2.708s-9.024-0.911-13.214-2.709l-48.558-20.824c-58.567-25.118-120.668-37.854-184.578-37.854h-85.198c-46.844 0-84.954-37.274-84.954-83.091V271.655c0-45.815 38.11-83.089 84.954-83.089h85.198c29.186 0 58.47 2.971 87.04 8.83a432.267 432.267 0 0 1 83.348 26.111l48.555 20.823a69.115 69.115 0 0 0 27.406 5.624 69.106 69.106 0 0 0 27.403-5.623l48.558-20.825a432.21 432.21 0 0 1 83.347-26.111 434.084 434.084 0 0 1 87.037-8.83h85.203m0-17.999h-85.202c-61.08 0-121.504 12.394-177.479 36.399l-48.558 20.825a51.516 51.516 0 0 1-20.309 4.166 51.52 51.52 0 0 1-20.309-4.166l-48.558-20.825c-55.976-24.005-116.399-36.399-177.483-36.399h-85.198c-56.859 0-102.954 45.261-102.954 101.089v448.477c0 55.832 46.095 101.091 102.954 101.091h85.198c61.084 0 121.507 12.39 177.483 36.397l48.558 20.825a51.516 51.516 0 0 0 20.309 4.166 51.52 51.52 0 0 0 20.309-4.166l48.558-20.825c55.976-24.007 116.399-36.397 177.479-36.397h85.202c56.859 0 102.95-45.259 102.95-101.091V271.655c0-55.828-46.091-101.089-102.95-101.089z" fill="#FFA820" p-id="2901"></path><path d="M408.971 340.055c-58.279-23.79-115.751-27.754-173.084-28.416-19-0.196-34.39 15.672-34.393 35.116V646.36c0.003 19.483 15.393 35.208 34.393 35.335 57.347 0.433 114.885 3.026 173.571 18.577 19.474 5.464 34.704-8.328 34.68-31.92 0-13.421-0.574-278.061-0.574-287.999 0.031-13.107-15.262-31.947-34.593-40.298z m383.738-28.418c-57.465 0.648-115.064 4.534-173.473 27.86-19.377 8.191-34.706 26.659-34.673 39.515 0 9.745-0.574 25.903-0.574 39.062-0.026 23.133 15.239 36.66 34.757 31.3 58.819-15.249 82.336-25.131 173.958-35.596 18.923-2.146 34.47-15.543 34.47-34.645v-33.064c-0.001-19.067-15.427-34.624-34.465-34.432z m0 156.42c-57.465 0.648-118.3 11.926-176.709 35.254-19.377 8.188-31.471 19.267-31.438 32.123 0 9.745-0.574 16.669-0.574 21.678-0.026 23.136 15.239 36.66 34.757 31.301 58.819-15.251 82.336-25.13 173.958-35.596 18.923-2.146 34.47-12.401 34.47-34.645v-15.484c0-19.066-15.426-34.826-34.464-34.631z" fill="#FFE3B4" p-id="2902"></path><path d="M366.379 258.733c-1.545 0-3.114-0.2-4.678-0.62-54.594-14.655-132.173-11.244-132.95-11.208-9.95 0.459-18.355-7.213-18.817-17.144-0.462-9.931 7.213-18.355 17.144-18.817 3.403-0.159 84.008-3.693 143.957 12.4 9.602 2.577 15.295 12.45 12.718 22.051-2.158 8.038-9.43 13.338-17.374 13.338zM167.979 246.925h-10.545c-9.941 0-18-8.059-18-18s8.059-18 18-18h10.545c9.941 0 18 8.059 18 18s-8.06 18-18 18z" fill="#FFFFFF" p-id="2903"></path></svg>